<svg id="Part-time" xmlns="http://www.w3.org/2000/svg" viewBox="0 0 57.01 49.22"><defs><style>.cls-1{fill:#fff;}</style></defs><circle class="cls-1" cx="18.2" cy="18.2" r="17.2"/><path d="M18.2,36.4A18.2,18.2,0,1,1,36.4,18.2,18.22,18.22,0,0,1,18.2,36.4ZM18.2,2A16.2,16.2,0,1,0,34.4,18.2,16.22,16.22,0,0,0,18.2,2Z"/><rect class="cls-1" x="11.08" y="33.99" width="14.23" height="4.69"/><path d="M25.31,39.68H11.08a1,1,0,0,1-1-1V34a1,1,0,0,1,1-1H25.31a1,1,0,0,1,1,1v4.69A1,1,0,0,1,25.31,39.68Zm-13.23-2H24.31V35H12.08Z"/><path d="M25.31,44.45H11.08a1,1,0,1,1,0-2H25.31a1,1,0,1,1,0,2Z"/><path d="M25.31,49.22H11.08a1,1,0,1,1,0-2H25.31a1,1,0,1,1,0,2Z"/><path class="cls-1" d="M13.53,15.37c0-1.95,1.23-5.14,4.49-5.14,4.51,0,4.87,4.91,2.57,7.21-1.2,1.21-2.71,1.72-2.71,3.89"/><path d="M17.88,22.33a1,1,0,0,1-1-1,4.6,4.6,0,0,1,2.17-3.87,9.18,9.18,0,0,0,.84-.72,3.86,3.86,0,0,0,.86-3.95A2.68,2.68,0,0,0,18,11.23c-2.85,0-3.49,3.07-3.49,4.14a1,1,0,0,1-2,0c0-2.55,1.7-6.14,5.49-6.14A4.67,4.67,0,0,1,22.6,12a5.86,5.86,0,0,1-1.3,6.13,11.09,11.09,0,0,1-1,.87c-.89.72-1.42,1.15-1.42,2.31A1,1,0,0,1,17.88,22.33Z"/><path d="M17.75,28.38a1,1,0,0,1-.7-.29A1,1,0,0,1,16.83,27a.87.87,0,0,1,.22-.32,1,1,0,0,1,.9-.28,1.08,1.08,0,0,1,.36.15l.15.13a1.21,1.21,0,0,1,.22.32,1,1,0,0,1-.93,1.38Z"/><rect class="cls-1" x="45.16" y="10.23" width="10.85" height="37.99"/><path d="M56,49.22H45.16a1,1,0,0,1-1-1v-38a1,1,0,0,1,1-1H56a1,1,0,0,1,1,1v38A1,1,0,0,1,56,49.22Zm-9.85-2H55v-36H46.16Z"/><polygon class="cls-1" points="56.01 10.23 45.16 10.23 50.59 1 56.01 10.23"/><path d="M56,11.23H45.16a1,1,0,0,1-.87-.51,1,1,0,0,1,0-1L49.72.49A1,1,0,0,1,50.59,0h0a1,1,0,0,1,.86.49l5.42,9.23A1,1,0,0,1,56,11.23Zm-9.1-2h7.35L50.59,3Z"/><path d="M50.59,6.61a1,1,0,0,1-1-1V2.15a1,1,0,1,1,2,0V5.61A1,1,0,0,1,50.59,6.61Z"/><path d="M56,44.45H45.16a1,1,0,0,1,0-2H56a1,1,0,1,1,0,2Z"/><path d="M50.59,36.72a1,1,0,0,1-1-1V17.13a1,1,0,1,1,2,0V35.72A1,1,0,0,1,50.59,36.72Z"/></svg>