<svg id="Part-time" xmlns="http://www.w3.org/2000/svg" viewBox="0 0 68.33 49.29"><defs><style>.cls-1{fill:#fff;}</style></defs><path class="cls-1" d="M34.19,41.66h-6s-.23-7.59-5.27-8.48L34.19,12.23V26.34"/><path d="M34.19,42.66h-6a1,1,0,0,1-1-1c0-.07-.27-6.78-4.44-7.52a1,1,0,0,1-.71-1.46l11.26-21a1,1,0,0,1,1.13-.49,1,1,0,0,1,.75,1V26.34a1,1,0,1,1-2,0V16.2L24.4,32.57c3.57,1.5,4.48,6.06,4.72,8.09h5.07a1,1,0,0,1,0,2Z"/><path class="cls-1" d="M34.19,41.66h6s.23-7.59,5.27-8.48L34.19,12.23V26.34"/><path d="M40.19,42.66h-6a1,1,0,0,1,0-2h5.08c.23-2,1.15-6.59,4.72-8.09L35.19,16.2V26.34a1,1,0,1,1-2,0V12.23a1,1,0,0,1,1.89-.48l11.26,21a1,1,0,0,1-.71,1.46c-4.19.74-4.43,7.45-4.44,7.52A1,1,0,0,1,40.19,42.66Z"/><circle class="cls-1" cx="34.19" cy="29.38" r="2.76"/><path d="M34.19,33.14A3.76,3.76,0,1,1,38,29.38,3.76,3.76,0,0,1,34.19,33.14Zm0-5.52A1.76,1.76,0,1,0,36,29.38,1.76,1.76,0,0,0,34.19,27.62Z"/><rect class="cls-1" x="28.2" y="41.66" width="12" height="6.56"/><path d="M40.19,49.22h-12a1,1,0,0,1-1-1V41.66a1,1,0,0,1,1-1h12a1,1,0,0,1,1,1v6.56A1,1,0,0,1,40.19,49.22Zm-11-2h10V42.66h-10Z"/><path d="M22.19,42.66a1,1,0,0,1-.93-1.38,1,1,0,0,1,.22-.33l.15-.12a.56.56,0,0,1,.17-.09.7.7,0,0,1,.19-.06.86.86,0,0,1,.39,0,.7.7,0,0,1,.19.06.56.56,0,0,1,.17.09l.15.12a1,1,0,0,1,.22.33,1,1,0,0,1,.07.38,1,1,0,0,1-.07.39,1,1,0,0,1-.22.32A1,1,0,0,1,22.19,42.66Z"/><path d="M46.2,42.66a1,1,0,0,1-.71-.29,1.15,1.15,0,0,1-.21-.33.94.94,0,0,1,0-.76.9.9,0,0,1,.54-.54,1,1,0,0,1,.76,0,1,1,0,0,1,.33.21,1.15,1.15,0,0,1,.21.33,1,1,0,0,1-.92,1.38Z"/><path d="M64.52,35.17a1,1,0,0,1-1-1,29.36,29.36,0,1,0-58.71,0,1,1,0,0,1-2,0,31.36,31.36,0,1,1,62.71,0A1,1,0,0,1,64.52,35.17Z"/><rect class="cls-1" x="1" y="31.36" width="5.62" height="5.62"/><path d="M6.62,38H1a1,1,0,0,1-1-1V31.36a1,1,0,0,1,1-1H6.62a1,1,0,0,1,1,1V37A1,1,0,0,1,6.62,38ZM2,36H5.62V32.36H2Z"/><rect class="cls-1" x="61.71" y="31.36" width="5.62" height="5.62"/><path d="M67.33,38H61.71a1,1,0,0,1-1-1V31.36a1,1,0,0,1,1-1h5.62a1,1,0,0,1,1,1V37A1,1,0,0,1,67.33,38Zm-4.62-2h3.62V32.36H62.71Z"/><rect class="cls-1" x="31.36" y="1" width="5.62" height="5.62"/><path d="M37,7.62H31.36a1,1,0,0,1-1-1V1a1,1,0,0,1,1-1H37a1,1,0,0,1,1,1V6.62A1,1,0,0,1,37,7.62Zm-4.62-2H36V2H32.36Z"/></svg>