<svg id="Specialities" xmlns="http://www.w3.org/2000/svg" viewBox="0 0 57.53 46.54"><defs><style>.cls-1{fill:#fff;}</style></defs><rect class="cls-1" x="11.29" y="1" width="45.24" height="34.37"/><path d="M56.53,36.37H11.29a1,1,0,0,1-1-1V1a1,1,0,0,1,1-1H56.53a1,1,0,0,1,1,1V35.37A1,1,0,0,1,56.53,36.37Zm-44.24-2H55.53V2H12.29Z"/><rect class="cls-1" x="25.1" y="10.68" width="22.72" height="18.28"/><path d="M47.82,30H25.1a1,1,0,0,1-1-1V10.68a1,1,0,0,1,1-1H47.82a1,1,0,0,1,1,1V29A1,1,0,0,1,47.82,30ZM26.1,28H46.82V11.68H26.1Z"/><polyline class="cls-1" points="18 21.19 16.28 19.73 17.94 18.32"/><path d="M18,22.19a1,1,0,0,1-.65-.24l-1.72-1.46a1,1,0,0,1,0-1.52l1.66-1.41a1,1,0,1,1,1.29,1.52l-.76.65.83.7A1,1,0,0,1,18,22.19Z"/><polyline class="cls-1" points="51.28 18.32 53 19.78 51.34 21.19"/><path d="M51.34,22.19a1,1,0,0,1-.76-.35,1,1,0,0,1,.11-1.41l.76-.65-.82-.7a1,1,0,1,1,1.29-1.52L53.65,19a1,1,0,0,1,.35.76,1,1,0,0,1-.35.76L52,22A1,1,0,0,1,51.34,22.19Z"/><path d="M56.53,7.16H11.29a1,1,0,0,1,0-2H56.53a1,1,0,0,1,0,2Z"/><path d="M46.92,4.64a1,1,0,0,1-.7-.29A.91.91,0,0,1,46,4a1,1,0,0,1-.08-.38,1,1,0,0,1,.3-.71,1,1,0,0,1,1.09-.21,1,1,0,0,1,.32.21,1,1,0,0,1,.29.71,1,1,0,0,1-.07.38,1.06,1.06,0,0,1-.22.33A1,1,0,0,1,46.92,4.64Z"/><path d="M50,4.64a1,1,0,0,1-.71-.29A1.15,1.15,0,0,1,49,4a.94.94,0,0,1,0-.76,1.15,1.15,0,0,1,.21-.33,1,1,0,0,1,.33-.21,1,1,0,0,1,.76,0,.93.93,0,0,1,.33.21,1.15,1.15,0,0,1,.21.33,1,1,0,0,1,.08.38,1.22,1.22,0,0,1-.07.38,1.19,1.19,0,0,1-.22.33A1,1,0,0,1,50,4.64Z"/><path d="M53,4.64a1.17,1.17,0,0,1-.38-.07,1.27,1.27,0,0,1-.33-.22A1.19,1.19,0,0,1,52.07,4,1,1,0,0,1,52,3.64a1,1,0,0,1,.29-.71.93.93,0,0,1,.33-.21,1,1,0,0,1,.76,0,1,1,0,0,1,.32.21,1,1,0,0,1,.3.71,1,1,0,0,1-.3.71,1.21,1.21,0,0,1-.32.22A1.22,1.22,0,0,1,53,4.64Z"/><polygon class="cls-1" points="8.56 6.16 1 13.72 1 45.54 29.69 45.54 29.69 6.16 8.56 6.16"/><path d="M29.69,46.54H1a1,1,0,0,1-1-1V13.72A1,1,0,0,1,.29,13L7.86,5.45a1,1,0,0,1,.7-.29H29.69a1,1,0,0,1,1,1V45.54A1,1,0,0,1,29.69,46.54ZM2,44.54H28.69V7.16H9l-7,7Z"/><polygon class="cls-1" points="8.56 6.16 1 13.72 8.56 13.72 8.56 6.16"/><path d="M8.56,14.72H1a1,1,0,0,1-.92-.62A1,1,0,0,1,.29,13L7.86,5.45a1,1,0,0,1,1.7.71v7.56A1,1,0,0,1,8.56,14.72Zm-5.15-2H7.56V8.57Z"/><path d="M21.59,24H8.13a1,1,0,1,1,0-2H21.59a1,1,0,0,1,0,2Z"/><path d="M21.59,30.78H8.13a1,1,0,0,1,0-2H21.59a1,1,0,1,1,0,2Z"/><path d="M12.58,38.73H8.13a1,1,0,0,1,0-2h4.45a1,1,0,0,1,0,2Z"/><path d="M15.34,38.7a1,1,0,0,1-.38-.08.87.87,0,0,1-.32-.22,1,1,0,0,1,0-1.41,1,1,0,0,1,1.7.71,1,1,0,0,1-.29.7A1,1,0,0,1,15.34,38.7Z"/><rect class="cls-1" x="12.59" y="11.89" width="9" height="6.06"/><path d="M21.59,19h-9a1,1,0,0,1-1-1V11.88a1,1,0,0,1,1-1h9a1,1,0,0,1,1,1V18A1,1,0,0,1,21.59,19Zm-8-2h7V12.88h-7Z"/><rect class="cls-1" x="27.83" y="12.39" width="7.89" height="27.65" transform="translate(42.66 65.96) rotate(-144.82)"/><path d="M27,40.79a1,1,0,0,1-.57-.18L20,36.06a1,1,0,0,1-.24-1.39L35.7,12.07a1,1,0,0,1,1.4-.24l6.45,4.54A1,1,0,0,1,44,17a1.05,1.05,0,0,1-.17.75L27.86,40.37a1,1,0,0,1-.65.41ZM22,35l4.82,3.4,14.78-21L36.76,14Z"/><polygon class="cls-1" points="20.59 35.24 27.04 39.79 19.95 43.01 20.59 35.24"/><path d="M20,44a1,1,0,0,1-.58-.18,1,1,0,0,1-.42-.9l.64-7.77a1,1,0,0,1,.58-.82,1,1,0,0,1,1,.09L27.62,39a1,1,0,0,1,.42.91,1,1,0,0,1-.58.81l-7.1,3.22A1,1,0,0,1,20,44Zm1.49-6.94-.36,4.32,4-1.79Z"/><line class="cls-1" x1="20.43" y1="42.32" x2="21.88" y2="40.26"/><path d="M20.43,43.32a1,1,0,0,1-.58-.18,1,1,0,0,1-.24-1.39l1.46-2.06a1,1,0,0,1,1.63,1.15L21.25,42.9A1,1,0,0,1,20.43,43.32Z"/><line class="cls-1" x1="40.97" y1="20.03" x2="34.52" y2="15.48"/><path d="M41,21a1,1,0,0,1-.57-.18L33.94,16.3a1,1,0,0,1-.24-1.39,1,1,0,0,1,1.4-.25l6.45,4.55A1,1,0,0,1,41,21Z"/><line class="cls-1" x1="26.71" y1="33.41" x2="34.5" y2="22.36"/><path d="M26.71,34.41a1,1,0,0,1-.58-.18,1,1,0,0,1-.24-1.39l7.8-11.06a1,1,0,0,1,1.63,1.15L27.53,34A1,1,0,0,1,26.71,34.41Z"/></svg>